<svg xmlns="http://www.w3.org/2000/svg" viewBox="0 0 1600 1000" width="1600" height="1000" role="img" aria-label="Lourdes">
<defs>
  <linearGradient id="cielo" x1="0" y1="0" x2="0" y2="1">
    <stop offset="0" stop-color="#0A1233"/><stop offset="0.55" stop-color="#1B2C63"/><stop offset="1" stop-color="#3B558F"/>
  </linearGradient>
  <radialGradient id="alone" cx="0.5" cy="0.5" r="0.5">
    <stop offset="0" stop-color="#A9C0FF" stop-opacity="0.95"/><stop offset="0.42" stop-color="#A9C0FF" stop-opacity="0.34"/>
    <stop offset="1" stop-color="#A9C0FF" stop-opacity="0"/>
  </radialGradient>
  <linearGradient id="acqua" x1="0" y1="0" x2="0" y2="1">
    <stop offset="0" stop-color="#2a4473"/><stop offset="1" stop-color="#07112a"/>
  </linearGradient>
  <linearGradient id="velo" x1="0" y1="0" x2="0" y2="1">
    <stop offset="0" stop-color="#3B558F" stop-opacity="0"/><stop offset="1" stop-color="#3B558F" stop-opacity="0.45"/>
  </linearGradient>
  <linearGradient id="terra" x1="0" y1="0" x2="0" y2="1">
    <stop offset="0" stop-color="#1d2946"/><stop offset="1" stop-color="#0a0f1e"/>
  </linearGradient>
  <radialGradient id="vign" cx="0.5" cy="0.42" r="0.80">
    <stop offset="0.5" stop-color="#000" stop-opacity="0"/><stop offset="1" stop-color="#000" stop-opacity="0.32"/>
  </radialGradient>
</defs>
<rect width="1600" height="1000" fill="url(#cielo)"/><circle cx="673.3" cy="152.9" r="1.2" fill="#fff" opacity="0.7"/><circle cx="1168.4" cy="161.5" r="0.9" fill="#fff" opacity="0.3"/><circle cx="839.4" cy="366.6" r="1.7" fill="#fff" opacity="0.4"/><circle cx="1547.4" cy="366" r="0.9" fill="#fff" opacity="0.4"/><circle cx="1309" cy="102.6" r="1.5" fill="#fff" opacity="0.8"/><circle cx="771.7" cy="68.5" r="1.9" fill="#fff" opacity="0.3"/><circle cx="717.2" cy="57.7" r="1.5" fill="#fff" opacity="0.8"/><circle cx="1561.6" cy="115.8" r="2.3" fill="#fff" opacity="0.4"/><circle cx="1166.3" cy="89.8" r="2" fill="#fff" opacity="0.5"/><circle cx="259.1" cy="359.5" r="1.6" fill="#fff" opacity="0.3"/><circle cx="86.4" cy="156" r="1.7" fill="#fff" opacity="0.3"/><circle cx="147.9" cy="397.1" r="1.2" fill="#fff" opacity="0.6"/><circle cx="940.3" cy="373.7" r="2.4" fill="#fff" opacity="0.8"/><circle cx="1518.1" cy="344.2" r="1.3" fill="#fff" opacity="0.8"/><circle cx="888.4" cy="82.7" r="1.9" fill="#fff" opacity="0.4"/><circle cx="214.6" cy="438.4" r="1.3" fill="#fff" opacity="0.4"/><circle cx="755.5" cy="387.1" r="2.2" fill="#fff" opacity="0.4"/><circle cx="216.4" cy="21.8" r="1.3" fill="#fff" opacity="0.8"/><circle cx="993.7" cy="376.4" r="2.1" fill="#fff" opacity="0.6"/><circle cx="448.1" cy="442.4" r="1.3" fill="#fff" opacity="0.5"/><circle cx="384.5" cy="296.8" r="1.1" fill="#fff" opacity="0.3"/><circle cx="1447" cy="400.5" r="1.5" fill="#fff" opacity="0.6"/><circle cx="268.9" cy="390.3" r="1.5" fill="#fff" opacity="0.6"/><circle cx="12.5" cy="161.6" r="1.3" fill="#fff" opacity="0.3"/><circle cx="239.4" cy="217.2" r="2.4" fill="#fff" opacity="0.5"/><circle cx="1147.8" cy="40.1" r="1.6" fill="#fff" opacity="0.5"/><circle cx="782.6" cy="439.8" r="1.5" fill="#fff" opacity="0.3"/><circle cx="704.9" cy="398.4" r="1.2" fill="#fff" opacity="0.5"/><circle cx="1019.6" cy="271.8" r="1.2" fill="#fff" opacity="0.6"/><circle cx="77.3" cy="212.9" r="2.2" fill="#fff" opacity="0.7"/><circle cx="1286.6" cy="209.6" r="2.5" fill="#fff" opacity="0.5"/><circle cx="313.5" cy="310.3" r="1" fill="#fff" opacity="0.5"/><circle cx="917.8" cy="95.4" r="2.6" fill="#fff" opacity="0.8"/><circle cx="173.5" cy="412.8" r="1.5" fill="#fff" opacity="0.8"/><circle cx="1584.7" cy="291.1" r="1.3" fill="#fff" opacity="0.3"/><circle cx="210.1" cy="155.7" r="1.6" fill="#fff" opacity="0.4"/><circle cx="708.7" cy="51" r="1.3" fill="#fff" opacity="0.8"/><circle cx="1587.2" cy="110.7" r="2.3" fill="#fff" opacity="0.4"/><circle cx="830" cy="367.6" r="1.6" fill="#fff" opacity="0.4"/><circle cx="130.8" cy="170.4" r="1.1" fill="#fff" opacity="0.6"/><circle cx="1155.6" cy="301" r="1.4" fill="#fff" opacity="0.6"/><circle cx="843.7" cy="68.7" r="0.9" fill="#fff" opacity="0.6"/><circle cx="248.3" cy="49.3" r="1.8" fill="#fff" opacity="0.7"/><circle cx="797.3" cy="180.5" r="1.2" fill="#fff" opacity="0.4"/><circle cx="1556.8" cy="152" r="0.8" fill="#fff" opacity="0.5"/><circle cx="406.4" cy="458.9" r="1.8" fill="#fff" opacity="0.3"/><circle cx="512" cy="391.3" r="2" fill="#fff" opacity="0.5"/><circle cx="932.8" cy="424.9" r="1.8" fill="#fff" opacity="0.6"/><circle cx="974.5" cy="440.3" r="1.7" fill="#fff" opacity="0.6"/><circle cx="1074.1" cy="405.7" r="2.5" fill="#fff" opacity="0.7"/><circle cx="885.3" cy="133.5" r="1.4" fill="#fff" opacity="0.3"/><circle cx="172.6" cy="279.2" r="1.8" fill="#fff" opacity="0.6"/><circle cx="557.6" cy="280.7" r="1.9" fill="#fff" opacity="0.7"/><circle cx="798.7" cy="370.5" r="2.2" fill="#fff" opacity="0.4"/><circle cx="1161.8" cy="266.1" r="0.9" fill="#fff" opacity="0.8"/><circle cx="827.6" cy="245" r="2.5" fill="#fff" opacity="0.4"/><circle cx="1449.2" cy="18" r="1.2" fill="#fff" opacity="0.7"/><circle cx="987.4" cy="310.7" r="1.8" fill="#fff" opacity="0.7"/><circle cx="1064.7" cy="163.3" r="1.2" fill="#fff" opacity="0.5"/><circle cx="52.9" cy="40.4" r="0.9" fill="#fff" opacity="0.5"/><circle cx="347.5" cy="224.2" r="1.6" fill="#fff" opacity="0.6"/><circle cx="37.3" cy="324" r="0.9" fill="#fff" opacity="0.7"/><circle cx="1440.2" cy="129.7" r="1.8" fill="#fff" opacity="0.4"/><circle cx="1540.6" cy="264.6" r="1.2" fill="#fff" opacity="0.5"/><circle cx="1125" cy="255.5" r="2.1" fill="#fff" opacity="0.8"/><circle cx="243.2" cy="313.7" r="2" fill="#fff" opacity="0.3"/><circle cx="1088.5" cy="401.5" r="2.5" fill="#fff" opacity="0.5"/><circle cx="226.6" cy="423" r="0.9" fill="#fff" opacity="0.5"/><circle cx="40.8" cy="117.4" r="0.9" fill="#fff" opacity="0.4"/><circle cx="354" cy="416.7" r="1.3" fill="#fff" opacity="0.3"/><circle cx="455.7" cy="333.9" r="226.8" fill="url(#alone)"/><circle cx="455.7" cy="333.9" r="54" fill="#F6F8FF"/><circle cx="477.7" cy="318.9" r="54" fill="#0A1233" opacity="0.92"/><path d="M0 670 L182.7 371.7 L365.4 670 L580.6 551.8 L795.8 670 L1016.8 548 L1237.8 670 L1334.6 472.7 L1431.4 670 L1571.5 427.7 L1711.6 670 Z" fill="#141f44" opacity="0.42"/><path d="M-40 670 v-87 h72.1 v87 zM39.8 670 v-93.6 h59.1 v93.6 zM69.3 576.4 v-16.8 h2 v16.8 zM105.4 670 v-79.7 h45.3 v79.7 zM157.9 670 v-83.5 h43.5 v18.4 h29 v65.2 zM238.7 670 v-106.3 h35.7 v106.3 zM256.6 563.7 v-19.1 h2 v19.1 zM278.3 670 v-113.8 h32.1 v25 h21.4 v88.7 zM340.8 670 v-68.2 h35.1 v68.2 zM381.1 670 v-95.3 h39.2 v95.3 zM424.7 670 v-75.8 h48.4 v75.8 zM1118.8 670 v-61.3 h31.7 v61.3 zM1158.5 670 v-45.6 h39.2 v45.6 zM1207.5 670 v-45.3 h76.3 v45.3 zM1294.7 670 v-114 h75.7 v114 zM1378.2 670 v-57.2 h28.9 v-17.1 l13.6 -12.6 l13.6 12.6 v17.1 h28.9 v57.2 zM1474.3 670 v-88.6 h49.1 v88.6 zM1534.7 670 v-61.2 h65.1 v61.2 zM1611.4 670 v-72.7 h87.5 v72.7 zM1655.2 597.3 v-13.1 h2 v13.1 z" fill="#141f44" opacity="0.45"/><path d="M-40 670 v-95 h19.5 v20.9 h13 v74.1 zM2.2 670 v-121.7 h23 v-36.5 l10.8 -26.8 l10.8 26.8 v36.5 h23 v121.7 zM74 670 v-69.2 h39.9 v69.2 zM121.3 670 v-64.5 l15 -22.6 l15 22.6 v64.5 zM158.7 670 v-114.6 l38.4 -40.1 l38.4 40.1 v114.6 zM244.4 670 v-81.1 h70.9 v81.1 zM279.9 588.9 v-14.6 h2 v14.6 zM322.4 670 v-138.1 h42.9 v138.1 zM376.3 670 v-120.3 h55.5 v120.3 zM404.1 549.7 v-21.7 h2 v21.7 zM441.8 670 v-74.6 h26.9 v-22.4 l12.7 -16.4 l12.7 16.4 v22.4 h26.9 v74.6 zM1118.8 670 v-143 h65.3 v143 zM1192 670 v-159.9 h80.2 v159.9 zM1232.1 510.1 v-28.8 h2 v28.8 zM1279.1 670 v-72.8 l13.7 -25.5 l13.7 25.5 v72.8 zM1317.6 670 v-64.2 l18.3 -22.5 l18.3 22.5 v64.2 zM1358.3 670 v-82.7 h54.6 v82.7 zM1418.7 670 v-94.1 l24.3 -33 l24.3 33 v94.1 zM1477.5 670 v-141.3 h33.2 v141.3 zM1494.1 528.7 v-25.4 h2 v25.4 zM1523.4 670 v-123.5 h74.7 v123.5 zM1602.5 670 v-81 h86.2 v81 z" fill="#101936" opacity="0.75"/><g transform="translate(-7 -6)" opacity="0.28"><g transform="translate(830 670) scale(1.28) translate(-830 -670)"><g transform="translate(830 670) scale(1)">
    <path d="M-150 0 v-90 h300 V0 z" fill="#A9C0FF"/>
    <path d="M-96 -90 v-70 h192 v70 z" fill="#A9C0FF"/>
    <path d="M-40 -160 v-96 h80 v96 z" fill="#A9C0FF"/>
    <path d="M-40 -256 l40 -120 l40 120 z" fill="#A9C0FF"/>
    <path d="M0 -376 v-34" stroke="#A9C0FF" stroke-width="5"/>
    <path d="M-12 -398 h24 M0 -410 v24" stroke="#A9C0FF" stroke-width="5"/>
    <path d="M-118 -160 v-56 h44 v56 z M-118 -216 l22 -52 l22 52 z" fill="#A9C0FF"/>
    <path d="M74 -160 v-56 h44 v56 z M74 -216 l22 -52 l22 52 z" fill="#A9C0FF"/>
    <path d="M-150 0 q0 -60 -60 -74 l0 74 z M150 0 q0 -60 60 -74 l0 74 z" fill="#A9C0FF" opacity="0.8"/></g></g></g><g transform="translate(830 670) scale(1.28) translate(-830 -670)"><g transform="translate(830 670) scale(1)">
    <path d="M-150 0 v-90 h300 V0 z" fill="#223052"/>
    <path d="M-96 -90 v-70 h192 v70 z" fill="#223052"/>
    <path d="M-40 -160 v-96 h80 v96 z" fill="#223052"/>
    <path d="M-40 -256 l40 -120 l40 120 z" fill="#223052"/>
    <path d="M0 -376 v-34" stroke="#223052" stroke-width="5"/>
    <path d="M-12 -398 h24 M0 -410 v24" stroke="#223052" stroke-width="5"/>
    <path d="M-118 -160 v-56 h44 v56 z M-118 -216 l22 -52 l22 52 z" fill="#223052"/>
    <path d="M74 -160 v-56 h44 v56 z M74 -216 l22 -52 l22 52 z" fill="#223052"/>
    <path d="M-150 0 q0 -60 -60 -74 l0 74 z M150 0 q0 -60 60 -74 l0 74 z" fill="#223052" opacity="0.8"/></g></g><path d="M-40 672 v-66.8 h46.7 v14.7 h31.1 v52.1 zM45.2 672 v-66 h38.6 v14.5 h25.7 v51.4 zM116 672 v-91.7 h82.3 v91.7 zM202 672 v-88.5 h43.2 v88.5 zM251 672 v-64 h81.5 v64 zM339.9 672 v-49 h26.9 v49 zM370 672 v-64.3 h32.3 v64.3 zM412.7 672 v-91.6 h29.1 v91.6 zM452.7 672 v-32.3 l24.9 -11.3 l24.9 11.3 v32.3 zM514.3 672 v-40.1 h71 v40.1 zM1009.1 672 v-69.3 h30.2 v69.3 zM1042.4 672 v-81.5 h49 v17.9 h32.7 v63.6 zM1136.2 672 v-50.2 l20.2 -17.6 l20.2 17.6 v50.2 zM1184.1 672 v-46 h52.4 v46 zM1243.9 672 v-75.5 h77.7 v75.5 zM1327.6 672 v-72 h29.1 v-21.6 l13.7 -15.8 l13.7 15.8 v21.6 h29.1 v72 zM1419.1 672 v-79.5 h64.2 v79.5 zM1493 672 v-54.2 h41.7 v54.2 zM1513.8 617.8 v-9.8 h2 v9.8 zM1540.5 672 v-63.6 h38.4 v63.6 zM1583.2 672 v-47.3 h9.2 v-14.2 l4.3 -10.4 l4.3 10.4 v14.2 h9.2 v47.3 zM1616.9 672 v-72.1 l37.1 -25.2 l37.1 25.2 v72.1 z" fill="#0a0f1f" opacity="1"/><rect x="0" y="670" width="1600" height="330" fill="url(#acqua)"/><g transform="translate(0 1340) scale(1 -1)" opacity="0.20"><g transform="translate(830 670) scale(1.28) translate(-830 -670)"><g transform="translate(830 670) scale(1)">
    <path d="M-150 0 v-90 h300 V0 z" fill="#223052"/>
    <path d="M-96 -90 v-70 h192 v70 z" fill="#223052"/>
    <path d="M-40 -160 v-96 h80 v96 z" fill="#223052"/>
    <path d="M-40 -256 l40 -120 l40 120 z" fill="#223052"/>
    <path d="M0 -376 v-34" stroke="#223052" stroke-width="5"/>
    <path d="M-12 -398 h24 M0 -410 v24" stroke="#223052" stroke-width="5"/>
    <path d="M-118 -160 v-56 h44 v56 z M-118 -216 l22 -52 l22 52 z" fill="#223052"/>
    <path d="M74 -160 v-56 h44 v56 z M74 -216 l22 -52 l22 52 z" fill="#223052"/>
    <path d="M-150 0 q0 -60 -60 -74 l0 74 z M150 0 q0 -60 60 -74 l0 74 z" fill="#223052" opacity="0.8"/></g></g></g><circle cx="455.7" cy="854.9" r="37.8" fill="#F6F8FF" opacity="0.16"/><rect x="400.8" y="927" width="99" height="2" rx="1" fill="#fff" opacity="0.1"/><rect x="1268.5" y="777.2" width="215.6" height="2" rx="1" fill="#fff" opacity="0.1"/><rect x="850.8" y="930.4" width="229.1" height="2" rx="1" fill="#fff" opacity="0.2"/><rect x="1441.4" y="841.2" width="50.3" height="2" rx="1" fill="#fff" opacity="0.1"/><rect x="548.6" y="871.2" width="188" height="2" rx="1" fill="#fff" opacity="0.2"/><rect x="264.8" y="695.1" width="184.9" height="2" rx="1" fill="#fff" opacity="0.1"/><rect x="370.5" y="918.4" width="191" height="2" rx="1" fill="#fff" opacity="0.1"/><rect x="1537.6" y="888.4" width="245.2" height="2" rx="1" fill="#fff" opacity="0.1"/><rect x="1072.3" y="766.2" width="59.1" height="2" rx="1" fill="#fff" opacity="0.1"/><rect x="810.5" y="719.5" width="77" height="2" rx="1" fill="#fff" opacity="0.1"/><rect x="565.8" y="985.5" width="84.8" height="2" rx="1" fill="#fff" opacity="0.1"/><rect x="1505.3" y="908.7" width="99.7" height="2" rx="1" fill="#fff" opacity="0.1"/><rect x="505.1" y="750.9" width="231.7" height="2" rx="1" fill="#fff" opacity="0.2"/><rect x="585.4" y="982" width="116.2" height="2" rx="1" fill="#fff" opacity="0.2"/><rect x="1557.1" y="939.2" width="198.3" height="2" rx="1" fill="#fff" opacity="0.1"/><rect x="122.5" y="781.7" width="72.3" height="2" rx="1" fill="#fff" opacity="0.1"/><rect x="368.8" y="989.7" width="143.7" height="2" rx="1" fill="#fff" opacity="0.1"/><rect x="528.8" y="727.8" width="136.5" height="2" rx="1" fill="#fff" opacity="0.2"/><rect x="443.3" y="954.6" width="162.1" height="2" rx="1" fill="#fff" opacity="0.2"/><rect x="179.1" y="984.4" width="242.7" height="2" rx="1" fill="#fff" opacity="0.1"/><rect x="694" y="979.7" width="176.8" height="2" rx="1" fill="#fff" opacity="0.1"/><rect x="18.9" y="793.2" width="151.1" height="2" rx="1" fill="#fff" opacity="0.1"/><rect x="1549.3" y="707.1" width="239.9" height="2" rx="1" fill="#fff" opacity="0.2"/><rect x="1273.6" y="796.6" width="81.1" height="2" rx="1" fill="#fff" opacity="0.2"/><rect x="1180" y="686.6" width="104.8" height="2" rx="1" fill="#fff" opacity="0.1"/><rect x="670.7" y="950.4" width="97.9" height="2" rx="1" fill="#fff" opacity="0.1"/><rect x="0" y="410" width="1600" height="260" fill="url(#velo)" opacity="0.45"/><rect width="1600" height="1000" fill="url(#vign)"/></svg>
