<svg xmlns="http://www.w3.org/2000/svg" viewBox="0 0 1600 1000" width="1600" height="1000" role="img" aria-label="Doha">
<defs>
  <linearGradient id="cielo" x1="0" y1="0" x2="0" y2="1">
    <stop offset="0" stop-color="#221543"/><stop offset="0.55" stop-color="#B33A6B"/><stop offset="1" stop-color="#FF9A5C"/>
  </linearGradient>
  <radialGradient id="alone" cx="0.5" cy="0.5" r="0.5">
    <stop offset="0" stop-color="#FF7A45" stop-opacity="0.95"/><stop offset="0.42" stop-color="#FF7A45" stop-opacity="0.34"/>
    <stop offset="1" stop-color="#FF7A45" stop-opacity="0"/>
  </radialGradient>
  <linearGradient id="acqua" x1="0" y1="0" x2="0" y2="1">
    <stop offset="0" stop-color="#a97152"/><stop offset="1" stop-color="#151333"/>
  </linearGradient>
  <linearGradient id="velo" x1="0" y1="0" x2="0" y2="1">
    <stop offset="0" stop-color="#FF9A5C" stop-opacity="0"/><stop offset="1" stop-color="#FF9A5C" stop-opacity="0.45"/>
  </linearGradient>
  <linearGradient id="terra" x1="0" y1="0" x2="0" y2="1">
    <stop offset="0" stop-color="#674333"/><stop offset="1" stop-color="#0d0f20"/>
  </linearGradient>
  <radialGradient id="vign" cx="0.5" cy="0.42" r="0.80">
    <stop offset="0.5" stop-color="#000" stop-opacity="0"/><stop offset="1" stop-color="#000" stop-opacity="0.32"/>
  </radialGradient>
</defs>
<rect width="1600" height="1000" fill="url(#cielo)"/><circle cx="575.9" cy="352.6" r="352.8" fill="url(#alone)"/><circle cx="575.9" cy="352.6" r="84" fill="#FFD9A0"/><ellipse cx="864.9" cy="86.2" rx="406.1" ry="16" fill="#FF9A5C" opacity="0.1"/><ellipse cx="1238.8" cy="172.6" rx="336.7" ry="17.8" fill="#FF9A5C" opacity="0.2"/><ellipse cx="788.2" cy="246.4" rx="436.8" ry="19.8" fill="#FF9A5C" opacity="0.2"/><path d="M-40 670 v-73.1 h27.3 v16.1 h18.2 v57 zM17.7 670 v-86.8 h30.6 v86.8 zM55 670 v-101.5 h79.7 v101.5 zM143.1 670 v-58 l24.4 -20.3 l24.4 20.3 v58 zM199.6 670 v-119.6 h56.4 v119.6 zM263.1 670 v-63.7 h44.1 v63.7 zM314.2 670 v-108.7 h79.4 v108.7 zM405.4 670 v-62.2 h29.4 v62.2 zM420.1 607.8 v-11.2 h2 v11.2 zM447.2 670 v-61.3 h23.2 v-18.4 l10.9 -13.5 l10.9 13.5 v18.4 h23.2 v61.3 zM1136.4 670 v-55 h79 v55 zM1222 670 v-92.2 h51 v20.3 h34 v71.9 zM1319.3 670 v-97.8 h49.2 v21.5 h32.8 v76.3 zM1409.4 670 v-61.3 h54.8 v61.3 zM1473.1 670 v-83.5 h67 v83.5 zM1548 670 v-68.5 h28.9 v68.5 zM1562.5 601.5 v-12.3 h2 v12.3 zM1583.5 670 v-60.5 h28.9 v60.5 zM1619.5 670 v-111.3 h9.8 v-33.4 l4.6 -24.5 l4.6 24.5 v33.4 h9.8 v111.3 z" fill="#6c2849" opacity="0.45"/><path d="M-40 670 v-86.8 l39.3 -30.4 l39.3 30.4 v86.8 zM46.7 670 v-81.1 h71.7 v81.1 zM82.5 588.9 v-14.6 h2 v14.6 zM127.9 670 v-134.6 h59.9 v134.6 zM157.9 535.4 v-24.2 h2 v24.2 zM190.8 670 v-151.5 h16.8 v-45.5 l7.9 -33.3 l7.9 33.3 v45.5 h16.8 v151.5 zM246.2 670 v-62.1 l18.8 -21.7 l18.8 21.7 v62.1 zM289.7 670 v-84.5 h22.5 v-25.4 l10.6 -18.6 l10.6 18.6 v25.4 h22.5 v84.5 zM367.7 670 v-76.7 h40.1 v76.7 zM412.8 670 v-133.9 h36.3 v133.9 zM430.9 536.1 v-24.1 h2 v24.1 zM456.5 670 v-140.3 h47.9 v140.3 zM1136.4 670 v-103.4 h82.5 v103.4 zM1230.4 670 v-162.4 h28.6 v35.7 h19.1 v126.7 zM1284.6 670 v-137.8 h54.6 v137.8 zM1311.9 532.2 v-24.8 h2 v24.8 zM1346.5 670 v-81.9 h21.5 v18 h14.3 v63.8 zM1389 670 v-127.4 h74.9 v127.4 zM1426.4 542.6 v-22.9 h2 v22.9 zM1476.5 670 v-114.5 h54.9 v114.5 zM1504 555.5 v-20.6 h2 v20.6 zM1534.7 670 v-121.2 h43.2 v26.7 h28.8 v94.5 zM1610.8 670 v-132.9 h16.5 v-39.9 l7.7 -29.2 l7.7 29.2 v39.9 h16.5 v132.9 z" fill="#4a1f39" opacity="0.75"/><g transform="translate(-7 -6)" opacity="0.28"><g transform="translate(830 670) scale(1.54) translate(-830 -670)"><g transform="translate(830 670) scale(1)">
    <path d="M-150 0 q10 -180 26 -230 q16 50 26 230 z" fill="#FF7A45"/>
    <path d="M-60 0 v-300 a30 30 0 0 1 60 0 V0 z" fill="#FF7A45"/>
    <path d="M40 0 q14 -200 34 -280 q20 80 34 280 z" fill="#FF7A45"/>
    <path d="M130 0 v-160 h56 v160 z M130 -160 l28 -60 l28 60 z" fill="#FF7A45"/>
    <path d="M-30 -300 v-40" stroke="#FF7A45" stroke-width="5"/></g></g></g><g transform="translate(830 670) scale(1.54) translate(-830 -670)"><g transform="translate(830 670) scale(1)">
    <path d="M-150 0 q10 -180 26 -230 q16 50 26 230 z" fill="#0c0f1e"/>
    <path d="M-60 0 v-300 a30 30 0 0 1 60 0 V0 z" fill="#0c0f1e"/>
    <path d="M40 0 q14 -200 34 -280 q20 80 34 280 z" fill="#0c0f1e"/>
    <path d="M130 0 v-160 h56 v160 z M130 -160 l28 -60 l28 60 z" fill="#0c0f1e"/>
    <path d="M-30 -300 v-40" stroke="#0c0f1e" stroke-width="5"/></g></g><path d="M-40 672 v-70.1 h46.6 v70.1 zM-16.7 601.9 v-12.6 h2 v12.6 zM18.2 672 v-49.3 l36.6 -17.3 l36.6 17.3 v49.3 zM96.1 672 v-43.9 h28.4 v43.9 zM131.1 672 v-66.1 h78.8 v66.1 zM214 672 v-78 h37 v17.2 h24.6 v60.9 zM280.6 672 v-79.9 h52.2 v79.9 zM338.2 672 v-51.3 h65 v51.3 zM415.5 672 v-78.1 h52.2 v78.1 zM477 672 v-65.8 h77.9 v65.8 zM563.8 672 v-77.9 h22.5 v-23.4 l10.6 -17.1 l10.6 17.1 v23.4 h22.5 v77.9 zM1020 672 v-74.6 h73.9 v74.6 zM1056.9 597.4 v-13.4 h2 v13.4 zM1104.8 672 v-41.6 h68.7 v41.6 zM1181.6 672 v-88.1 h53.7 v88.1 zM1248 672 v-75.7 h22.1 v16.6 h14.7 v59 zM1297 672 v-76.5 h53.3 v76.5 zM1362 672 v-57 h77.3 v57 zM1449.2 672 v-62.1 h24.3 v13.7 h16.2 v48.4 zM1494.9 672 v-74.9 h33.6 v74.9 zM1536.9 672 v-45.6 h28.2 v-13.7 l13.3 -10 l13.3 10 v13.7 h28.2 v45.6 zM1624 672 v-70.6 h64.8 v70.6 z" fill="#0e0f21" opacity="1"/><rect x="0" y="670" width="1600" height="330" fill="url(#acqua)"/><g transform="translate(0 1340) scale(1 -1)" opacity="0.20"><g transform="translate(830 670) scale(1.54) translate(-830 -670)"><g transform="translate(830 670) scale(1)">
    <path d="M-150 0 q10 -180 26 -230 q16 50 26 230 z" fill="#0c0f1e"/>
    <path d="M-60 0 v-300 a30 30 0 0 1 60 0 V0 z" fill="#0c0f1e"/>
    <path d="M40 0 q14 -200 34 -280 q20 80 34 280 z" fill="#0c0f1e"/>
    <path d="M130 0 v-160 h56 v160 z M130 -160 l28 -60 l28 60 z" fill="#0c0f1e"/>
    <path d="M-30 -300 v-40" stroke="#0c0f1e" stroke-width="5"/></g></g></g><circle cx="575.9" cy="844.6" r="58.8" fill="#FFD9A0" opacity="0.16"/><rect x="1182" y="975.6" width="90.1" height="2" rx="1" fill="#fff" opacity="0.1"/><rect x="852.3" y="734.8" width="128.6" height="2" rx="1" fill="#fff" opacity="0.1"/><rect x="1097.4" y="965.6" width="203.9" height="2" rx="1" fill="#fff" opacity="0.1"/><rect x="28.9" y="983.7" width="203.2" height="2" rx="1" fill="#fff" opacity="0.1"/><rect x="381.3" y="862.3" width="74.9" height="2" rx="1" fill="#fff" opacity="0.1"/><rect x="1372.1" y="887.6" width="223.6" height="2" rx="1" fill="#fff" opacity="0.2"/><rect x="865.3" y="971.5" width="66.5" height="2" rx="1" fill="#fff" opacity="0.1"/><rect x="984" y="850.6" width="99.6" height="2" rx="1" fill="#fff" opacity="0.1"/><rect x="765.3" y="940.2" width="59.9" height="2" rx="1" fill="#fff" opacity="0.1"/><rect x="1195.7" y="797.3" width="173.1" height="2" rx="1" fill="#fff" opacity="0.1"/><rect x="1465.8" y="720.5" width="146.2" height="2" rx="1" fill="#fff" opacity="0.2"/><rect x="1232.5" y="830.7" width="236.5" height="2" rx="1" fill="#fff" opacity="0.1"/><rect x="1044.3" y="700.7" width="166.4" height="2" rx="1" fill="#fff" opacity="0.1"/><rect x="1499.6" y="760.3" width="244" height="2" rx="1" fill="#fff" opacity="0.1"/><rect x="883.4" y="743.8" width="181" height="2" rx="1" fill="#fff" opacity="0.1"/><rect x="1472.1" y="766.4" width="76.7" height="2" rx="1" fill="#fff" opacity="0.1"/><rect x="938.3" y="843.9" width="159.7" height="2" rx="1" fill="#fff" opacity="0.1"/><rect x="842.3" y="706.3" width="249.3" height="2" rx="1" fill="#fff" opacity="0.1"/><rect x="672.2" y="788.5" width="50.3" height="2" rx="1" fill="#fff" opacity="0.1"/><rect x="195.6" y="871.1" width="78.1" height="2" rx="1" fill="#fff" opacity="0.1"/><rect x="1353.4" y="989.1" width="162.6" height="2" rx="1" fill="#fff" opacity="0.1"/><rect x="1318.4" y="830.2" width="145.4" height="2" rx="1" fill="#fff" opacity="0.1"/><rect x="247.2" y="837.1" width="180" height="2" rx="1" fill="#fff" opacity="0.2"/><rect x="332.9" y="959" width="197.6" height="2" rx="1" fill="#fff" opacity="0.1"/><rect x="287.3" y="770.2" width="61.3" height="2" rx="1" fill="#fff" opacity="0.1"/><rect x="502.6" y="907.3" width="124.1" height="2" rx="1" fill="#fff" opacity="0.2"/><path d="M882.8 286.8 q9.5 -7.4 19.1 0 q9.5 -7.4 19.1 0" fill="none" stroke="#13112a" stroke-width="2.3" stroke-linecap="round" opacity="0.5"/><path d="M1198.2 277 q8.9 -6.9 17.8 0 q8.9 -6.9 17.8 0" fill="none" stroke="#13112a" stroke-width="2.2" stroke-linecap="round" opacity="0.5"/><path d="M960 290.5 q9.2 -7.1 18.4 0 q9.2 -7.1 18.4 0" fill="none" stroke="#13112a" stroke-width="2.2" stroke-linecap="round" opacity="0.5"/><path d="M1299.2 312.8 q12.3 -9.6 24.6 0 q12.3 -9.6 24.6 0" fill="none" stroke="#13112a" stroke-width="3" stroke-linecap="round" opacity="0.5"/><path d="M913.8 120.8 q9.1 -7.1 18.2 0 q9.1 -7.1 18.2 0" fill="none" stroke="#13112a" stroke-width="2.2" stroke-linecap="round" opacity="0.5"/><rect x="0" y="410" width="1600" height="260" fill="url(#velo)" opacity="0.45"/><rect width="1600" height="1000" fill="url(#vign)"/></svg>
